<svg width="188.985" height="38.831" font-family="Helvetica, Arial, serif" xmlns="http://www.w3.org/2000/svg"><g aria-label="Genealogies" style="font-size:40px;line-height:1.25;font-family:Montserrat;-inkscape-font-specification:Montserrat;white-space:pre;shape-inside:url(#rect32540);fill:#32273b;fill-opacity:1;stroke-width:.487243" transform="translate(-89.14 -55.5) scale(.84182)"><path d="M120.649 95.847q-3.2 0-5.92-1.04-2.68-1.08-4.68-3-1.96-1.92-3.08-4.52-1.08-2.6-1.08-5.68 0-3.08 1.08-5.68 1.12-2.6 3.12-4.52 2-1.92 4.68-2.96 2.72-1.08 5.92-1.08 3.2 0 5.84 1 2.68 1 4.56 3.04l-1.84 1.88q-1.76-1.76-3.88-2.52t-4.56-.76q-2.6 0-4.8.88-2.16.84-3.8 2.44-1.6 1.56-2.52 3.68-.88 2.08-.88 4.6 0 2.48.88 4.6.92 2.12 2.52 3.72 1.64 1.56 3.8 2.44 2.2.84 4.76.84 2.4 0 4.52-.72 2.16-.72 3.96-2.44l1.68 2.24q-2 1.76-4.68 2.68-2.68.88-5.6.88zm7.44-3.92v-10.32h2.84v10.68zM147.626 95.807q-3.28 0-5.76-1.36-2.48-1.4-3.88-3.8-1.4-2.44-1.4-5.56 0-3.12 1.32-5.52 1.36-2.4 3.68-3.76 2.36-1.4 5.28-1.4 2.96 0 5.24 1.36 2.32 1.32 3.64 3.76 1.32 2.4 1.32 5.56 0 .2-.04.44v.44h-18.28v-2.12h16.76l-1.12.84q0-2.28-1-4.04-.96-1.8-2.64-2.8-1.68-1-3.88-1-2.16 0-3.88 1-1.72 1-2.68 2.8-.96 1.8-.96 4.12v.44q0 2.4 1.04 4.24 1.08 1.8 2.96 2.84 1.92 1 4.36 1 1.92 0 3.56-.68 1.68-.68 2.88-2.08l1.6 1.84q-1.4 1.68-3.52 2.56-2.08.88-4.6.88zM173.567 74.407q2.56 0 4.48 1 1.96.96 3.04 2.96 1.12 2 1.12 5.04v12.2h-2.84v-11.92q0-3.32-1.68-5-1.64-1.72-4.64-1.72-2.24 0-3.92.92-1.64.88-2.56 2.6-.88 1.68-.88 4.08v11.04h-2.84v-21h2.72v5.76l-.44-1.08q1-2.28 3.2-3.56 2.2-1.32 5.24-1.32zM198.798 95.807q-3.28 0-5.76-1.36-2.48-1.4-3.88-3.8-1.4-2.44-1.4-5.56 0-3.12 1.32-5.52 1.36-2.4 3.68-3.76 2.36-1.4 5.28-1.4 2.96 0 5.24 1.36 2.32 1.32 3.64 3.76 1.32 2.4 1.32 5.56 0 .2-.04.44v.44h-18.28v-2.12h16.76l-1.12.84q0-2.28-1-4.04-.96-1.8-2.64-2.8-1.68-1-3.88-1-2.16 0-3.88 1-1.72 1-2.68 2.8-.96 1.8-.96 4.12v.44q0 2.4 1.04 4.24 1.08 1.8 2.96 2.84 1.92 1 4.36 1 1.92 0 3.56-.68 1.68-.68 2.88-2.08l1.6 1.84q-1.4 1.68-3.52 2.56-2.08.88-4.6.88zM226.554 95.607v-4.64l-.12-.76v-7.76q0-2.68-1.52-4.12-1.48-1.44-4.44-1.44-2.04 0-3.88.68-1.84.68-3.12 1.8l-1.28-2.12q1.6-1.36 3.84-2.08 2.24-.76 4.72-.76 4.08 0 6.28 2.04 2.24 2 2.24 6.12v13.04zm-7.24.2q-2.36 0-4.12-.76-1.72-.8-2.64-2.16-.92-1.4-.92-3.2 0-1.64.76-2.96.8-1.36 2.56-2.16 1.8-.84 4.8-.84h7.24v2.12h-7.16q-3.04 0-4.24 1.08-1.16 1.08-1.16 2.68 0 1.8 1.4 2.88 1.4 1.08 3.92 1.08 2.4 0 4.12-1.08 1.76-1.12 2.56-3.2l.64 1.96q-.8 2.08-2.8 3.32-1.96 1.24-4.96 1.24zM236.987 95.607v-29.68h2.84v29.68zM256.329 95.807q-3.04 0-5.48-1.36-2.4-1.4-3.8-3.8-1.4-2.44-1.4-5.56 0-3.16 1.4-5.56 1.4-2.4 3.8-3.76 2.4-1.36 5.48-1.36 3.12 0 5.52 1.36 2.44 1.36 3.8 3.76 1.4 2.4 1.4 5.56 0 3.12-1.4 5.56-1.36 2.4-3.8 3.8-2.44 1.36-5.52 1.36zm0-2.52q2.28 0 4.04-1 1.76-1.04 2.76-2.88 1.04-1.88 1.04-4.32 0-2.48-1.04-4.32-1-1.84-2.76-2.84-1.76-1.04-4-1.04t-4 1.04q-1.76 1-2.8 2.84-1.04 1.84-1.04 4.32 0 2.44 1.04 4.32 1.04 1.84 2.8 2.88 1.76 1 3.96 1zM281.807 103.567q-2.88 0-5.52-.84-2.64-.84-4.28-2.4l1.44-2.16q1.48 1.32 3.64 2.08 2.2.8 4.64.8 4 0 5.88-1.88 1.88-1.84 1.88-5.76v-5.24l.4-3.6-.28-3.6v-6.36h2.72v18.44q0 5.44-2.68 7.96-2.64 2.56-7.84 2.56zm-.52-8.76q-3 0-5.4-1.28-2.4-1.32-3.8-3.64-1.36-2.32-1.36-5.32 0-3 1.36-5.28 1.4-2.32 3.8-3.6 2.4-1.28 5.4-1.28 2.8 0 5.04 1.16t3.56 3.44q1.32 2.28 1.32 5.56t-1.32 5.56q-1.32 2.28-3.56 3.48-2.24 1.2-5.04 1.2zm.28-2.52q2.32 0 4.12-.96 1.8-1 2.84-2.72 1.04-1.76 1.04-4.04 0-2.28-1.04-4-1.04-1.72-2.84-2.68-1.8-1-4.12-1-2.28 0-4.12 1-1.8.96-2.84 2.68-1 1.72-1 4 0 2.28 1 4.04 1.04 1.72 2.84 2.72 1.84.96 4.12.96z" style="fill:#32273b;fill-opacity:1;stroke-width:.487243"/><path d="M301.729 81.328q1.599 0 2.689 1.123 1.09 1.122 1.09 2.694 0 1.572-1.09 2.62-1.09 1.122-2.69 1.122-1.598 0-2.689-1.048-1.09-1.048-1.09-2.62 0-1.646 1.09-2.768 1.018-1.123 2.69-1.123z" style="fill:#fff;fill-opacity:1;stroke:#32273b;stroke-width:.276232;stroke-miterlimit:4;stroke-dasharray:none;stroke-opacity:1"/><path d="M303.149 91.055v21h-2.84v-21zM320.944 95.807q-3.28 0-5.76-1.36-2.48-1.4-3.88-3.8-1.4-2.44-1.4-5.56 0-3.12 1.32-5.52 1.36-2.4 3.68-3.76 2.36-1.4 5.28-1.4 2.96 0 5.24 1.36 2.32 1.32 3.64 3.76 1.32 2.4 1.32 5.56 0 .2-.04.44v.44h-18.28v-2.12h16.76l-1.12.84q0-2.28-1-4.04-.96-1.8-2.64-2.8-1.68-1-3.88-1-2.16 0-3.88 1-1.72 1-2.68 2.8-.96 1.8-.96 4.12v.44q0 2.4 1.04 4.24 1.08 1.8 2.96 2.84 1.92 1 4.36 1 1.92 0 3.56-.68 1.68-.68 2.88-2.08l1.6 1.84q-1.4 1.68-3.52 2.56-2.08.88-4.6.88z" style="fill:#32273b;fill-opacity:1;stroke-width:.487243"/></g></svg>